<svg xmlns="http://www.w3.org/2000/svg" viewBox="0 0 64 64"><rect width="36" height="46" x="11" y="3" fill="#ffeb99" rx="2" ry="2"/><path fill="#ffe477" d="M47,13.13V47a2.006,2.006,0,0,1-2,2H13a2.006,2.006,0,0,1-2-2V43.28C23.12,39.23,37.94,30.78,47,13.13Z"/><rect width="6" height="6" x="37" y="19" fill="#ff9478" rx="1" ry="1"/><path fill="#ff9478" d="M37,30v4a1,1,0,0,0,1,1h2V29H38A1,1,0,0,0,37,30Z"/><path fill="#ffdaaa" d="M57,38V53a2.006,2.006,0,0,1-2,2H40V51a8.995,8.995,0,0,1-3.22-2A2.08,2.08,0,0,1,36,47.73V37.12a2.09,2.09,0,0,1,1.66-2.09,2.02,2.02,0,0,1,1.34.24A2,2,0,0,1,40,37V25.12a2.09,2.09,0,0,1,1.66-2.09A2,2,0,0,1,44,25V35a2,2,0,0,1,1-1.73,2.02,2.02,0,0,1,1.34-.24A2.09,2.09,0,0,1,48,35.12V36a2,2,0,0,1,2.34-1.97A2.09,2.09,0,0,1,52,36.12V37a2,2,0,0,1,4,0A1,1,0,0,1,57,38Z"/><polygon fill="#3d9ae2" points="55 55 40 55 39 55 39 61 58 61 58 55 55 55"/><rect width="28" height="8" x="15" y="7" fill="#ffc477"/><rect width="6" height="6" x="15" y="19" fill="#ff9478" rx="1" ry="1"/><rect width="6" height="6" x="26" y="19" fill="#ff9478" rx="1" ry="1"/><rect width="6" height="6" x="15" y="29" fill="#ff9478" rx="1" ry="1"/><rect width="6" height="6" x="26" y="29" fill="#ff9478" rx="1" ry="1"/><rect width="6" height="6" x="15" y="39" fill="#ff9478" rx="1" ry="1"/><rect width="6" height="6" x="26" y="39" fill="#ff9478" rx="1" ry="1"/><rect width="2" height="2" x="53" y="57" fill="#ff9478"/><rect width="2" height="2" x="38" y="11" fill="#ff7956"/><rect width="2" height="2" x="34" y="11" fill="#ff7956"/><rect width="2" height="2" x="30" y="11" fill="#ff7956"/><path fill="#ffc477" d="M45 33.27V37H44V35A2 2 0 0 1 45 33.27zM49 34.27V38H48V36A2 2 0 0 1 49 34.27zM53 35.27V38H52V37A2 2 0 0 1 53 35.27zM40 37v2H39V35.27A2 2 0 0 1 40 37z"/></svg>